<svg xmlns="http://www.w3.org/2000/svg" viewBox="0 0 1200 360">
  <defs>
    <linearGradient id="bg" x1="0" y1="0" x2="1" y2="1">
      <stop offset="0%" stop-color="#0f172a"/>
      <stop offset="100%" stop-color="#1e293b"/>
    </linearGradient>
    <linearGradient id="iron-b" x1="0" y1="0" x2="0" y2="1">
      <stop offset="0%" stop-color="#4b5563"/>
      <stop offset="45%" stop-color="#374151"/>
      <stop offset="100%" stop-color="#1f2937"/>
    </linearGradient>
    <linearGradient id="iron-e" x1="0" y1="0" x2="1" y2="1">
      <stop offset="0%" stop-color="#6b7280"/>
      <stop offset="100%" stop-color="#374151"/>
    </linearGradient>
    <linearGradient id="fg" x1="0" y1="0" x2="0.5" y2="1">
      <stop offset="0%" stop-color="#fbbf24"/>
      <stop offset="100%" stop-color="#f59e0b"/>
    </linearGradient>
    <linearGradient id="fg-s" x1="0" y1="0" x2="1" y2="1">
      <stop offset="0%" stop-color="#fcd34d"/>
      <stop offset="100%" stop-color="#d97706"/>
    </linearGradient>
    <radialGradient id="ig" cx="50%" cy="35%" r="60%">
      <stop offset="0%" stop-color="#9ca3af" stop-opacity="0.15"/>
      <stop offset="100%" stop-color="#1f2937" stop-opacity="0"/>
    </radialGradient>
    <linearGradient id="accent-line" x1="0" y1="0" x2="1" y2="0">
      <stop offset="0%" stop-color="#f59e0b" stop-opacity="0"/>
      <stop offset="50%" stop-color="#f59e0b" stop-opacity="0.6"/>
      <stop offset="100%" stop-color="#f59e0b" stop-opacity="0"/>
    </linearGradient>
    <linearGradient id="grid-fade" x1="0" y1="0" x2="1" y2="0">
      <stop offset="0%" stop-color="#334155" stop-opacity="0"/>
      <stop offset="30%" stop-color="#334155" stop-opacity="0.15"/>
      <stop offset="100%" stop-color="#334155" stop-opacity="0.05"/>
    </linearGradient>
  </defs>

  <rect width="1200" height="360" fill="url(#bg)"/>

  <g opacity="0.08">
    <line x1="300" y1="0" x2="300" y2="360" stroke="#94a3b8" stroke-width="0.5"/>
    <line x1="400" y1="0" x2="400" y2="360" stroke="#94a3b8" stroke-width="0.5"/>
    <line x1="500" y1="0" x2="500" y2="360" stroke="#94a3b8" stroke-width="0.5"/>
    <line x1="600" y1="0" x2="600" y2="360" stroke="#94a3b8" stroke-width="0.5"/>
    <line x1="700" y1="0" x2="700" y2="360" stroke="#94a3b8" stroke-width="0.5"/>
    <line x1="800" y1="0" x2="800" y2="360" stroke="#94a3b8" stroke-width="0.5"/>
    <line x1="900" y1="0" x2="900" y2="360" stroke="#94a3b8" stroke-width="0.5"/>
    <line x1="1000" y1="0" x2="1000" y2="360" stroke="#94a3b8" stroke-width="0.5"/>
    <line x1="1100" y1="0" x2="1100" y2="360" stroke="#94a3b8" stroke-width="0.5"/>
    <line x1="0" y1="60" x2="1200" y2="60" stroke="#94a3b8" stroke-width="0.5"/>
    <line x1="0" y1="120" x2="1200" y2="120" stroke="#94a3b8" stroke-width="0.5"/>
    <line x1="0" y1="180" x2="1200" y2="180" stroke="#94a3b8" stroke-width="0.5"/>
    <line x1="0" y1="240" x2="1200" y2="240" stroke="#94a3b8" stroke-width="0.5"/>
    <line x1="0" y1="300" x2="1200" y2="300" stroke="#94a3b8" stroke-width="0.5"/>
  </g>

  <g transform="translate(140, 180) scale(0.32)">
    <polygon points="256,38 444,147 444,365 256,474 68,365 68,147"
             fill="url(#iron-b)" stroke="url(#iron-e)" stroke-width="4" stroke-linejoin="round"/>
    <polygon points="256,38 444,147 444,365 256,474 68,365 68,147"
             fill="url(#ig)"/>
    <polygon points="256,62 422,160 422,352 256,450 90,352 90,160"
             fill="none" stroke="#4b5563" stroke-width="2" stroke-linejoin="round" opacity="0.6"/>
    <g stroke="url(#fg-s)" stroke-width="6" stroke-linecap="round" opacity="0.9">
      <line x1="256" y1="256" x2="256" y2="161"/>
      <line x1="256" y1="256" x2="330" y2="197"/>
      <line x1="256" y1="256" x2="349" y2="277"/>
      <line x1="256" y1="256" x2="297" y2="342"/>
      <line x1="256" y1="256" x2="215" y2="342"/>
      <line x1="256" y1="256" x2="163" y2="277"/>
      <line x1="256" y1="256" x2="182" y2="197"/>
    </g>
    <circle cx="256" cy="256" r="98" fill="none" stroke="#f59e0b" stroke-width="3.5" opacity="0.5"/>
    <g fill="url(#fg)">
      <circle cx="256" cy="161" r="16"/>
      <circle cx="330" cy="197" r="16"/>
      <circle cx="349" cy="277" r="16"/>
      <circle cx="297" cy="342" r="16"/>
      <circle cx="215" cy="342" r="16"/>
      <circle cx="163" cy="277" r="16"/>
      <circle cx="182" cy="197" r="16"/>
    </g>
    <circle cx="256" cy="256" r="32" fill="url(#fg)"/>
    <circle cx="256" cy="256" r="20" fill="#2d3748"/>
    <circle cx="256" cy="256" r="10" fill="#fbbf24"/>
  </g>

  <text x="310" y="155" font-family="'Segoe UI', Arial, Helvetica, sans-serif" font-size="72" font-weight="bold" fill="#f8fafc" letter-spacing="-1">Iron</text>
  <text x="484" y="155" font-family="'Segoe UI', Arial, Helvetica, sans-serif" font-size="72" font-weight="bold" fill="#f59e0b" letter-spacing="-1">Kube</text>

  <text x="310" y="195" font-family="'Segoe UI', Arial, Helvetica, sans-serif" font-size="21" fill="#94a3b8" letter-spacing="0.5">Unified Kubernetes lifecycle management</text>

  <text x="310" y="230" font-family="'Segoe UI', Arial, Helvetica, sans-serif" font-size="14" fill="#64748b" letter-spacing="0.3">Day 0 through Day 2  ·  No management cluster  ·  One binary, any distro, any infrastructure</text>

  <rect x="310" y="256" width="70" height="26" rx="4" fill="#1e3a5f" opacity="0.8"/>
  <text x="319" y="274" font-family="'Segoe UI', Arial, Helvetica, sans-serif" font-size="12" fill="#60a5fa" letter-spacing="0.3">Go 1.26</text>

  <rect x="392" y="256" width="88" height="26" rx="4" fill="#1e3a5f" opacity="0.8"/>
  <text x="401" y="274" font-family="'Segoe UI', Arial, Helvetica, sans-serif" font-size="12" fill="#60a5fa" letter-spacing="0.3">863 tests</text>

  <rect x="492" y="256" width="100" height="26" rx="4" fill="#1e3a5f" opacity="0.8"/>
  <text x="501" y="274" font-family="'Segoe UI', Arial, Helvetica, sans-serif" font-size="12" fill="#60a5fa" letter-spacing="0.3">Apache-2.0</text>

  <rect x="604" y="256" width="110" height="26" rx="4" fill="#1e3a5f" opacity="0.8"/>
  <text x="613" y="274" font-family="'Segoe UI', Arial, Helvetica, sans-serif" font-size="12" fill="#60a5fa" letter-spacing="0.3">4 distros</text>

  <rect x="726" y="256" width="130" height="26" rx="4" fill="#1e3a5f" opacity="0.8"/>
  <text x="735" y="274" font-family="'Segoe UI', Arial, Helvetica, sans-serif" font-size="12" fill="#60a5fa" letter-spacing="0.3">3 infra providers</text>

  <line x1="0" y1="358" x2="1200" y2="358" stroke="url(#accent-line)" stroke-width="2"/>

  <g opacity="0.04">
    <polygon points="950,40 1010,75 1010,145 950,180 890,145 890,75" fill="none" stroke="#f59e0b" stroke-width="1"/>
    <polygon points="1050,100 1110,135 1110,205 1050,240 990,205 990,135" fill="none" stroke="#f59e0b" stroke-width="1"/>
    <polygon points="1000,200 1060,235 1060,305 1000,340 940,305 940,235" fill="none" stroke="#f59e0b" stroke-width="1"/>
    <polygon points="1100,10 1160,45 1160,115 1100,150 1040,115 1040,45" fill="none" stroke="#f59e0b" stroke-width="1"/>
    <polygon points="1100,250 1160,285 1160,355 1100,390 1040,355 1040,285" fill="none" stroke="#f59e0b" stroke-width="1"/>
  </g>
</svg>
